<?xml version="1.0" encoding="UTF-8" standalone="no"?>
<!-- Created with Inkscape (http://www.inkscape.org/) -->

<svg
   xmlns:dc="http://purl.org/dc/elements/1.1/"
   xmlns:cc="http://creativecommons.org/ns#"
   xmlns:rdf="http://www.w3.org/1999/02/22-rdf-syntax-ns#"
   xmlns:svg="http://www.w3.org/2000/svg"
   xmlns="http://www.w3.org/2000/svg"
   xmlns:sodipodi="http://sodipodi.sourceforge.net/DTD/sodipodi-0.dtd"
   xmlns:inkscape="http://www.inkscape.org/namespaces/inkscape"
   width="210mm"
   height="297mm"
   viewBox="0 0 744.09448819 1052.3622047"
   id="svg2"
   version="1.1"
   inkscape:version="0.91 r13725"
   sodipodi:docname="runningman.svg">
  <defs
     id="defs4" />
  <sodipodi:namedview
     id="base"
     pagecolor="#ffffff"
     bordercolor="#666666"
     borderopacity="1.0"
     inkscape:pageopacity="0.0"
     inkscape:pageshadow="2"
     inkscape:zoom="0.49497475"
     inkscape:cx="-9.1989861"
     inkscape:cy="1018.8221"
     inkscape:document-units="px"
     inkscape:current-layer="layer1"
     showgrid="false"
     inkscape:window-width="2560"
     inkscape:window-height="1537"
     inkscape:window-x="-8"
     inkscape:window-y="-8"
     inkscape:window-maximized="1" />
  <metadata
     id="metadata7">
    <rdf:RDF>
      <cc:Work
         rdf:about="">
        <dc:format>image/svg+xml</dc:format>
        <dc:type
           rdf:resource="http://purl.org/dc/dcmitype/StillImage" />
        <dc:title></dc:title>
      </cc:Work>
    </rdf:RDF>
  </metadata>
  <g
     inkscape:label="Layer 1"
     inkscape:groupmode="layer"
     id="layer1">
    <path
       style="fill:#000000"
       d="m 84.056002,1047.7273 c -4.35878,-1.148 -5.49015,-3.7954 -8.2485,-19.302 -2.19682,-12.3498 -2.66103,-13.6401 -9.28184,-25.7981 -3.83316,-7.03895 -7.18705,-12.58041 -7.45311,-12.31435 -0.26606,0.26605 -2.15305,7.1502 -4.19333,15.29805 l -3.70958,14.8144 -20.7132,0.2704 -20.7132001,0.2703 -2.47491,-2.4749 c -4.35871,-4.3587 -2.78064,-9.7731 3.3586601,-11.5236 1.83347,-0.5228 8.80395,-0.8766 15.48997,-0.7863 12.1092,0.1636 12.15924,0.1547 12.89213,-2.2958 0.40466,-1.3531 1.67163,-10.88584 2.81549,-21.18397 l 2.07975,-18.72388 8.11439,-13.11213 c 6.12254,-9.89348 7.79116,-13.3119 6.79762,-13.92595 -1.06027,-0.65528 -17.26314,-4.01416 -19.36388,-4.01416 -0.30487,0 -2.64213,3.83018 -5.19393,8.51152 -2.5518,4.68133 -5.51736,8.98126 -6.59014,9.5554 -2.82117,1.50984 -5.76682,0.2119 -6.5442,-2.88357 -0.53306,-2.12261 0.66803,-5.26676 5.74768,-15.04598 3.53185,-6.79944 6.9994,-12.59097 7.70565,-12.87007 2.27529,-0.89915 31.55607,4.80241 35.55298,6.92288 5.16148,2.7383 6.30561,1.46922 4.21825,-4.67895 -2.03972,-6.00785 -1.21221,-10.69349 2.66925,-15.11423 5.82929,-6.6392 15.76006,-6.59533 21.63475,0.0956 7.327018,8.34502 3.714688,20.54186 -6.99172,23.60714 -7.83845,2.24417 -8.53147,3.69756 -3.41948,7.17125 1.89647,1.28869 7.06225,6.86646 11.47951,12.39506 8.021298,10.03937 8.039018,10.05362 14.105078,11.34092 9.99138,2.12032 13.92644,7.00804 8.50304,10.56158 -2.27585,1.4912 -3.09767,1.47917 -10.75,-0.15729 l -8.28576,-1.77192 -9.080368,-9.49703 -9.08038,-9.49702 -6.12185,11.12076 -6.12184,11.12076 7.4305,17.24009 c 6.86365,15.92489 7.67298,18.55629 10.60883,34.49309 2.95722,16.0529 3.06756,17.4221 1.58612,19.6831 -1.93692,2.9561 -4.19231,3.6224 -8.45843,2.4989 z"
       id="path4151"
       inkscape:connector-curvature="0" />
  </g>
</svg>
