<?xml version="1.0" encoding="UTF-8" standalone="no"?>
<!-- Generator: Adobe Illustrator 16.0.0, SVG Export Plug-In . SVG Version: 6.00 Build 0)  -->

<svg
   xmlns:dc="http://purl.org/dc/elements/1.1/"
   xmlns:cc="http://creativecommons.org/ns#"
   xmlns:rdf="http://www.w3.org/1999/02/22-rdf-syntax-ns#"
   xmlns:svg="http://www.w3.org/2000/svg"
   xmlns="http://www.w3.org/2000/svg"
   xmlns:sodipodi="http://sodipodi.sourceforge.net/DTD/sodipodi-0.dtd"
   xmlns:inkscape="http://www.inkscape.org/namespaces/inkscape"
   version="1.1"
   id="Capa_1"
   x="0px"
   y="0px"
   width="512px"
   height="512px"
   viewBox="0 0 32 32"
   style="enable-background:new 0 0 32 32;"
   xml:space="preserve"
   sodipodi:docname="robotone.svg"
   inkscape:export-filename="C:\Users\rob\Downloads\Icons\robotone.png"
   inkscape:export-xdpi="3"
   inkscape:export-ydpi="3"
   inkscape:version="0.92.2 (5c3e80d, 2017-08-06)"><metadata
     id="metadata47"><rdf:RDF><cc:Work
         rdf:about=""><dc:format>image/svg+xml</dc:format><dc:type
           rdf:resource="http://purl.org/dc/dcmitype/StillImage" /><dc:title></dc:title></cc:Work></rdf:RDF></metadata><defs
     id="defs45" /><sodipodi:namedview
     pagecolor="#ffffff"
     bordercolor="#666666"
     borderopacity="1"
     objecttolerance="10"
     gridtolerance="10"
     guidetolerance="10"
     inkscape:pageopacity="0"
     inkscape:pageshadow="2"
     inkscape:window-width="2020"
     inkscape:window-height="1072"
     id="namedview43"
     showgrid="false"
     inkscape:zoom="0.921875"
     inkscape:cx="256.95381"
     inkscape:cy="226.46189"
     inkscape:window-x="0"
     inkscape:window-y="0"
     inkscape:window-maximized="0"
     inkscape:current-layer="Capa_1" /><g
     id="g10"><g
       id="g8"><path
         d="m 28.320559,21.923203 h -0.028 v -0.673 h -0.224 L 27.255,11.807 c -0.0024,-0.0279 0.003,-0.056 0.003,-0.083 0,-2.358 -2.277,-4.414 -5.648,-5.496 h -5.608 -5.609 c -3.372,1.082 -5.65,3.138 -5.65,5.496 0,0.028 0.003,0.055 0.004,0.083 l -1.2881356,9.30761 h -0.225 v 0.673 h -0.028 -0.318 v 1.851 h 0.848 v -0.925 h 1.537 v 0.925 h 0.849 v -1.851 h -0.407 v -0.673 h -0.224 L 6.9823898,15.698983 C 7.8863898,16.425983 8.851,16.699 10.203,17.153 c -0.19,0.283 0.586356,1.194169 0.586356,1.506169 0,1.227 -0.656288,1.667831 1.585712,2.104831 -1.026,0.305 -0.338068,0.801 -0.338068,1.361 0,0.671 0.956,1.248 2.335,1.518 H 9.73 c -0.237,0 -0.7939831,0.0082 -0.9729831,0.135203 C 8.4270169,23.997203 8.548,24.44 8.548,24.866 v 4.746 C 7.605,30.062 6.96,30.961 6.96,32 h 5.896 c 0,-1.136 -0.771,-2.105 -1.861,-2.501 v -3.662 h 5.006 5.005 v 3.662 C 19.918,29.895 19.147,30.864 19.147,32 h 5.896 c 0,-1.039 -0.646,-1.938 -1.589,-2.387 v -4.746 c 0,-0.426 0.121983,-0.799 -0.208017,-1.02 C 23.065983,23.72 22.51,23.644 22.272,23.644 h -4.643 c 1.38,-0.27 2.335,-0.847 2.335,-1.518 0,-0.561 0.416746,-1.124797 -0.609254,-1.428797 2.243,-0.437 1.790101,-0.810034 1.790101,-2.037034 0,-0.312 0.844153,-1.223169 0.654153,-1.506169 1.352,-0.454 2.181017,-0.931407 3.085017,-1.657407 l 1.152542,5.75461 h -0.224 v 0.673 h -0.407 v 1.851 h 0.848 v -0.925 h 1.537 v 0.925 h 0.848 v -1.851 h -0.318 z"
         id="path2"
         inkscape:connector-curvature="0"
         style="fill:#d88400;fill-opacity:1"
         sodipodi:nodetypes="ccccsscccsccccccccccccccccccscscscscccccccccccscscscsccccccccccccccc" /><path
         d="M 21.578,5.514 C 21.578,2.469 21.414085,0 18.369085,0 18.348085,0 16.022,0.003 16.001,0.003 15.979,0.003 13.925102,0 13.904102,0 10.858102,0 10.423,2.469 10.423,5.514 h 5.578 z M 14.077,2.926 c 0,-1.142 0.926,-2.068 2.068,-2.068 1.142,0 2.067,0.926 2.067,2.068 0,1.143 -0.927,2.068 -2.067,2.068 -1.141,0 -2.068,-0.926 -2.068,-2.068 z"
         id="path4"
         inkscape:connector-curvature="0"
         style="fill:#d87e00;fill-opacity:1"
         sodipodi:nodetypes="cssscccsssss" /><path
         d="m 17.227,2.926 c 0,-0.597 -0.484,-1.081 -1.082,-1.081 -0.043,0 -0.084,0.003 -0.125,0.007 0.078,0.108 0.126,0.238 0.126,0.381 0,0.359 -0.291,0.65 -0.65,0.65 -0.157,0 -0.301,-0.059 -0.413,-0.152 -0.012,0.063 -0.019,0.129 -0.019,0.195 0,0.598 0.484,1.082 1.082,1.082 0.596,-0.001 1.081,-0.484 1.081,-1.082 z"
         id="path6"
         inkscape:connector-curvature="0"
         style="fill:#000000;fill-opacity:1" /></g></g><g
     id="g12" /><g
     id="g14" /><g
     id="g16" /><g
     id="g18" /><g
     id="g20" /><g
     id="g22" /><g
     id="g24" /><g
     id="g26" /><g
     id="g28" /><g
     id="g30" /><g
     id="g32" /><g
     id="g34" /><g
     id="g36" /><g
     id="g38" /><g
     id="g40" /></svg>